<?xml version="1.0" encoding="UTF-8" standalone="no"?>
<!-- Created with Inkscape (http://www.inkscape.org/) -->

<svg
   width="17.164743mm"
   height="15.477703mm"
   viewBox="0 0 17.164743 15.477703"
   version="1.1"
   id="svg5"
   xml:space="preserve"
   inkscape:version="1.2.2 (732a01da63, 2022-12-09)"
   sodipodi:docname="logo.svg"
   xmlns:inkscape="http://www.inkscape.org/namespaces/inkscape"
   xmlns:sodipodi="http://sodipodi.sourceforge.net/DTD/sodipodi-0.dtd"
   xmlns="http://www.w3.org/2000/svg"
   xmlns:svg="http://www.w3.org/2000/svg"><sodipodi:namedview
     id="namedview7"
     pagecolor="#ffffff"
     bordercolor="#000000"
     borderopacity="0.25"
     inkscape:showpageshadow="2"
     inkscape:pageopacity="0.0"
     inkscape:pagecheckerboard="0"
     inkscape:deskcolor="#d1d1d1"
     inkscape:document-units="mm"
     showgrid="false"
     inkscape:zoom="1.5393939"
     inkscape:cx="13.641733"
     inkscape:cy="67.234254"
     inkscape:window-width="1920"
     inkscape:window-height="1051"
     inkscape:window-x="-9"
     inkscape:window-y="-9"
     inkscape:window-maximized="1"
     inkscape:current-layer="layer1" /><defs
     id="defs2"><linearGradient
       id="linearGradient3152"
       inkscape:swatch="solid"><stop
         style="stop-color:#004d00;stop-opacity:0;"
         offset="0"
         id="stop3150" /></linearGradient><linearGradient
       id="linearGradient3051"
       inkscape:swatch="solid"><stop
         style="stop-color:#ffffff;stop-opacity:1;"
         offset="0"
         id="stop3049" /></linearGradient><linearGradient
       id="linearGradient3045"
       inkscape:swatch="solid"><stop
         style="stop-color:#004d00;stop-opacity:1;"
         offset="0"
         id="stop3043" /></linearGradient><linearGradient
       id="linearGradient6868"
       inkscape:swatch="solid"><stop
         style="stop-color:#024938;stop-opacity:0;"
         offset="0"
         id="stop6866" /></linearGradient></defs><g
     inkscape:label="Camada 1"
     inkscape:groupmode="layer"
     id="layer1"
     transform="translate(-8.6938421,-20.801093)"><path
       style="fill:#008000;fill-opacity:1;stroke-width:0.0338174"
       d="m 19.677005,36.233067 c -0.458847,-0.09949 -0.823449,-0.381075 -0.914491,-0.706253 -0.05047,-0.180182 -0.03286,-0.438896 0.03936,-0.579208 0.02811,-0.05454 0.116003,-0.220921 0.195378,-0.369714 l 0.144303,-0.270542 -0.01467,-0.359168 c -0.01254,-0.309361 -0.0281,-0.386693 -0.111717,-0.55762 -0.133111,-0.27207 -0.378615,-0.497162 -0.726743,-0.666318 -0.267462,-0.129951 -0.310996,-0.140574 -0.626105,-0.152616 -0.400058,-0.01529 -0.861796,0.06014 -1.096691,0.179168 -0.309508,0.156853 -0.567309,0.529496 -0.645723,0.933413 -0.04432,0.228285 -0.04384,0.72612 9.81e-4,0.995144 0.07389,0.443838 0.0015,0.845849 -0.203211,1.128433 -0.182529,0.251959 -0.357473,0.325348 -0.911358,0.382283 -0.399887,0.04112 -0.895727,0.0043 -1.433177,-0.106232 -0.56861,-0.117009 -1.955108,-0.50279 -2.020875,-0.562307 -0.03522,-0.03188 -0.06403,-0.100705 -0.06403,-0.152955 0,-0.05224 0.107779,-0.525453 0.239513,-1.051558 0.214318,-0.855923 0.241494,-1.001561 0.258359,-1.384434 0.01859,-0.422351 0.0176,-0.430667 -0.08193,-0.642534 -0.126896,-0.27026 -0.255478,-0.423559 -0.377799,-0.450424 -0.05241,-0.01166 -0.25364,0.0055 -0.447169,0.03771 -0.193521,0.03225 -0.526878,0.05953 -0.740773,0.06063 -0.4225037,0.0023 -0.5296867,-0.03096 -0.7791574,-0.24088 -0.171451,-0.144281 -0.416054,-0.545365 -0.5148127,-0.844179 -0.105543,-0.319337 -0.173653,-0.911168 -0.143412,-1.246188 0.07528,-0.834058 0.4699147,-1.594199 0.9494414,-1.828809 0.169055,-0.08269 0.211278,-0.08952 0.4472177,-0.07216 0.184645,0.01355 0.373819,0.06017 0.649438,0.159917 0.46734,0.169131 0.637738,0.171362 0.835937,0.01083 0.172654,-0.139742 0.243103,-0.296442 0.280591,-0.624129 0.07201,-0.629421 -0.06719,-1.72133 -0.577893,-4.532525 -0.168096,-0.925356 -0.1697,-0.913769 0.141459,-1.023094 0.100231,-0.03522 0.440952,-0.162558 0.757147,-0.283002 1.098579,-0.418436 1.67986,-0.56781 2.35032,-0.60398 0.487496,-0.0263 0.642618,0.01061 0.816519,0.195496 0.261354,0.277501 0.292949,0.609908 0.110407,1.1615 -0.04924,0.148793 -0.09722,0.379147 -0.106637,0.511888 -0.01606,0.225136 -0.009,0.258375 0.104821,0.494827 0.223861,0.465425 0.672443,0.773285 1.323759,0.908495 0.42726,0.08869 0.940266,0.07279 1.188131,-0.03685 0.365005,-0.16147 0.688713,-0.560435 0.688713,-0.84885 0,-0.06815 -0.03027,-0.320069 -0.06726,-0.5598 -0.15026,-0.97349 -0.05528,-1.346814 0.423253,-1.663786 0.220903,-0.146331 0.47871,-0.18818 1.022525,-0.16604 0.581813,0.02371 0.904245,0.08026 1.901798,0.333642 1.288637,0.327319 1.251252,0.31142 1.251252,0.531999 0,0.06948 -0.07501,0.499666 -0.166692,0.955978 -0.258327,1.285774 -0.321579,1.752836 -0.3222,2.379174 -4e-4,0.485982 0.0074,0.560714 0.0769,0.733897 0.10953,0.272752 0.235983,0.347357 0.541388,0.319455 0.124118,-0.01136 0.324594,-0.04341 0.445489,-0.07129 0.963419,-0.222086 1.766692,0.216915 2.016696,1.102145 0.06747,0.238895 0.101411,1.291641 0.05044,1.563523 -0.07324,0.390461 -0.259736,0.637044 -0.620198,0.820001 -0.278507,0.14136 -0.526955,0.144493 -1.041105,0.01297 -0.713564,-0.182254 -1.015291,-0.143866 -1.294008,0.164635 -0.168877,0.186927 -0.205408,0.348676 -0.184269,0.815986 0.02928,0.646907 0.194225,1.454594 0.648904,3.177298 0.232961,0.882631 0.42356,1.636811 0.42356,1.67596 0,0.151284 -0.07681,0.190038 -0.746465,0.376819 -1.894322,0.528347 -2.743682,0.663984 -3.343468,0.53393 z m 0.94579,-0.456041 c 0.312318,-0.03836 1.225686,-0.250229 2.078892,-0.482217 0.435977,-0.118538 0.539207,-0.157874 0.531442,-0.202459 -0.0054,-0.03044 -0.17666,-0.691265 -0.380804,-1.468516 -0.508601,-1.936481 -0.619268,-2.527131 -0.619613,-3.306953 -1.68e-4,-0.4072 0.01026,-0.499703 0.07363,-0.661109 0.09353,-0.23768 0.350292,-0.504014 0.607823,-0.630475 0.167354,-0.08218 0.241071,-0.09643 0.548787,-0.106165 0.311683,-0.0098 0.407213,0.0023 0.775632,0.09669 0.492574,0.126523 0.651429,0.122341 0.856492,-0.02256 0.239046,-0.168897 0.276517,-0.286521 0.289375,-0.908345 0.0159,-0.766268 -0.06636,-1.089173 -0.35201,-1.382661 -0.276506,-0.284101 -0.691834,-0.355837 -1.297424,-0.224086 -0.80718,0.175605 -1.214817,-0.0088 -1.424078,-0.644526 -0.07498,-0.227738 -0.08242,-0.303392 -0.07957,-0.809214 0.0036,-0.632273 0.07779,-1.217781 0.285002,-2.248867 0.07099,-0.353392 0.13929,-0.712185 0.151698,-0.797315 l 0.02259,-0.15478 -0.738494,-0.190057 c -1.133857,-0.291817 -1.430989,-0.342299 -2.025765,-0.344188 -0.502112,-0.0015 -0.511524,-2.01e-4 -0.652305,0.09274 -0.247022,0.163162 -0.283005,0.254203 -0.263447,0.666543 0.0091,0.195301 0.04259,0.499486 0.074,0.675973 0.107202,0.601741 0.02131,0.95326 -0.32566,1.332904 -0.308211,0.337233 -0.584175,0.470494 -1.100417,0.531375 -0.604111,0.07124 -1.369028,-0.0796 -1.838812,-0.36263 -0.412746,-0.248669 -0.635092,-0.487065 -0.819607,-0.87877 -0.103297,-0.21929 -0.110058,-0.256398 -0.110205,-0.605595 -1.36e-4,-0.326954 0.01297,-0.41358 0.109753,-0.715455 0.134714,-0.420946 0.137337,-0.514916 0.01839,-0.656262 L 14.9266,21.26132 14.570021,21.2805 c -0.617628,0.03323 -1.055777,0.146348 -2.138645,0.552199 -0.366348,0.137308 -0.681222,0.24964 -0.699719,0.24964 -0.01857,0 -0.04256,0.01457 -0.05349,0.03213 -0.01089,0.0176 0.07074,0.531271 0.181454,1.141341 0.374969,2.066114 0.476944,2.845973 0.476944,3.647452 0,0.733259 -0.08878,1.028797 -0.388133,1.292313 -0.225122,0.198161 -0.36881,0.257151 -0.660212,0.271043 -0.231472,0.01083 -0.291496,-0.0013 -0.687014,-0.14251 -0.269501,-0.09614 -0.490702,-0.154588 -0.584963,-0.154588 -0.1362847,0 -0.1682117,0.01658 -0.3164327,0.164852 -0.3381977,0.338199 -0.5213297,0.868542 -0.5211127,1.509117 2e-4,0.60013 0.110581,0.995266 0.3799687,1.360237 0.216116,0.292799 0.410961,0.327433 1.1884687,0.21125 0.279921,-0.04182 0.515406,-0.05964 0.608717,-0.04607 0.332159,0.04837 0.53886,0.230335 0.76092,0.669894 l 0.135254,0.267723 -0.0042,0.560806 -0.0042,0.560806 -0.221613,0.878954 c -0.121871,0.483422 -0.218925,0.881429 -0.215657,0.884463 0.02309,0.02143 1.67417,0.431856 1.890047,0.46981 0.60716,0.106752 1.269734,0.09149 1.51402,-0.03481 0.05574,-0.02883 0.134845,-0.11676 0.175763,-0.195417 0.08463,-0.16256 0.09019,-0.293345 0.04593,-1.073012 -0.02298,-0.405072 -0.01798,-0.540343 0.02895,-0.777801 0.07469,-0.377931 0.218554,-0.666415 0.462215,-0.926893 0.355014,-0.379509 0.753844,-0.522749 1.538824,-0.552661 0.521284,-0.01988 0.680573,0.01539 1.141625,0.253047 0.676967,0.348874 1.00115,0.88785 1.002946,1.66747 7.97e-4,0.339222 -0.06812,0.585828 -0.256407,0.917642 -0.174918,0.308286 -0.183858,0.440177 -0.04024,0.593952 0.228301,0.244451 0.658712,0.324518 1.31266,0.24418 z m -4.769159,-5.83128 v -0.220673 h 0.15217 0.152172 v -0.202907 -0.202904 h -0.52417 c -0.419492,0 -0.524174,-0.0091 -0.524174,-0.046 0,-0.02531 -0.03806,-0.102073 -0.08454,-0.170579 -0.04651,-0.06853 -0.08454,-0.139319 -0.08454,-0.157341 0,-0.01798 0.289274,-0.466263 0.642827,-0.996113 l 0.642814,-0.963356 h 0.202614 0.202612 v 0.945412 0.945407 l 0.245179,0.01006 0.245176,0.01006 0.01006,0.209844 0.01006,0.209848 -0.246753,0.01006 -0.246751,0.01006 v 0.18599 0.185991 l 0.145293,0.01026 0.145295,0.01049 -0.01006,0.209337 -0.01006,0.209342 -0.532628,0.0092 -0.532627,0.0092 z m 0.304357,-1.578612 v -0.512496 l -0.281972,0.419501 c -0.155098,0.230726 -0.309013,0.46135 -0.342063,0.512498 l -0.06009,0.09299 h 0.342062 0.342064 z m 1.305674,1.769735 c -0.03047,-0.04931 0.04394,-0.469057 0.115187,-0.649866 0.130502,-0.331086 0.345989,-0.577167 0.811089,-0.926241 0.504606,-0.378722 0.646117,-0.582588 0.57545,-0.828993 -0.0835,-0.291137 -0.40722,-0.423111 -0.698646,-0.284817 -0.156737,0.07436 -0.224049,0.216137 -0.246742,0.519609 l -0.01899,0.253632 h -0.219816 -0.219811 l 6e-4,-0.288392 c 5.98e-4,-0.251705 0.01355,-0.314088 0.101431,-0.490354 0.215452,-0.431388 0.69282,-0.589981 1.262299,-0.419359 0.424588,0.127195 0.663987,0.605029 0.531488,1.060813 -0.07206,0.247912 -0.225668,0.415713 -0.729121,0.796522 -0.213895,0.161806 -0.44511,0.356472 -0.513804,0.432619 -0.111165,0.12323 -0.230187,0.309684 -0.230187,0.360624 0,0.01026 0.243486,0.01859 0.541084,0.01859 h 0.54108 l 6.01e-4,-0.312809 c 1.99e-4,-0.172049 0.01297,-0.332667 0.0285,-0.356931 0.01917,-0.03022 0.09082,-0.04088 0.227752,-0.03383 l 0.199768,0.01026 -0.01253,0.557986 c -0.0068,0.306896 -0.01917,0.569406 -0.02737,0.583351 -0.02025,0.03475 -1.997742,0.03231 -2.01924,-0.0025 z"
       id="path4437" /></g></svg>
